<svg width="110" height="31" viewBox="0 0 110 31" fill="none" xmlns="http://www.w3.org/2000/svg">
<g filter="url(#filter0_d_88_934)">
<path d="M51.3672 22.0646H37.0628C36.2077 22.0655 35.3609 21.8965 34.5707 21.5673C33.7805 21.2382 33.0626 20.7553 32.4579 20.1462C31.8533 19.5372 31.3738 18.8141 31.047 18.0182C30.7202 17.2224 30.5524 16.3694 30.5533 15.5081V7.64317C30.5642 5.90895 31.2539 4.24906 32.4727 3.02405C33.6915 1.79904 35.341 1.10785 37.0628 1.10059H51.2159V6.34158H37.5784C37.3385 6.33852 37.1004 6.38415 36.8784 6.47574C36.6564 6.56733 36.4549 6.703 36.2861 6.87468C36.1136 7.04212 35.9771 7.2434 35.8849 7.46607C35.7926 7.68875 35.7467 7.9281 35.7499 8.16935V14.9958C35.749 15.2382 35.7956 15.4784 35.8871 15.7027C35.9786 15.9269 36.1131 16.1307 36.283 16.3025C36.4529 16.4742 36.6548 16.6105 36.8771 16.7035C37.0993 16.7965 37.3377 16.8443 37.5784 16.8443H46.1637V13.6803H40.9671V9.45709H51.3672V22.0646Z" fill="white"/>
<path d="M74.525 15.7714C74.5293 17.4165 73.8926 18.9975 72.7516 20.1747C72.2254 20.7726 71.5785 21.2504 70.8542 21.5764C70.13 21.9023 69.345 22.0688 68.5517 22.0647H55.0104V16.8307H67.7681C67.9721 16.8308 68.1738 16.7885 68.3607 16.7063C68.5477 16.6241 68.7157 16.5038 68.8542 16.353C69.0043 16.2108 69.1238 16.0392 69.2054 15.8487C69.287 15.6581 69.3289 15.4527 69.3284 15.2452C69.3114 14.8346 69.1414 14.4454 68.8522 14.1554C68.563 13.8654 68.1759 13.6959 67.7681 13.6805H59.7052C58.9061 13.6873 58.1151 13.5208 57.3856 13.1922C56.6562 12.8637 56.0055 12.3809 55.4778 11.7766C54.3445 10.602 53.7104 9.02859 53.7104 7.39066C53.7104 5.75274 54.3445 4.17935 55.4778 3.00471C56.0055 2.40042 56.6562 1.91761 57.3856 1.58909C58.1151 1.26057 58.9061 1.09403 59.7052 1.10078H73.2121V6.34177H60.4819C60.2766 6.34168 60.0733 6.38333 59.8843 6.46422C59.6953 6.54512 59.5245 6.6636 59.3821 6.81256C59.2326 6.95188 59.1138 7.1212 59.0333 7.30962C58.9528 7.49803 58.9124 7.70135 58.9147 7.90645C58.9138 8.11339 58.9548 8.31835 59.0351 8.5088C59.1155 8.69925 59.2335 8.87122 59.3821 9.0142C59.5245 9.16316 59.6953 9.28164 59.8843 9.36253C60.0733 9.44343 60.2766 9.48508 60.4819 9.48498H68.5517C69.3473 9.4785 70.1349 9.64599 70.86 9.97589C71.5851 10.3058 72.2305 10.7903 72.7516 11.3958C73.8903 12.5632 74.5273 14.1349 74.525 15.7714V15.7714Z" fill="white"/>
<path d="M21.2738 1.10059H12.1523V6.34158H20.7514C20.9899 6.34066 21.2263 6.38731 21.4469 6.47884C21.6674 6.57037 21.8679 6.70497 22.0365 6.87488C22.2052 7.04478 22.3389 7.24664 22.4297 7.46881C22.5206 7.69098 22.5669 7.92906 22.566 8.16935V14.9958C22.57 15.2386 22.5251 15.4797 22.4342 15.7045C22.3432 15.9294 22.208 16.1334 22.0367 16.3043C21.8705 16.478 21.6707 16.6155 21.4496 16.7084C21.2285 16.8013 20.9909 16.8476 20.7514 16.8443H12.1523V6.34158H7.51245V19.9875C7.51245 21.2337 8.06923 21.9261 9.16903 22.0645H21.2738C22.9955 22.0554 24.6438 21.3611 25.8593 20.1329C27.0749 18.9047 27.759 17.2423 27.7626 15.5081V7.64317C27.7465 5.91419 27.0579 4.2605 25.8447 3.03723C24.6314 1.81395 22.9903 1.11863 21.2738 1.10059V1.10059Z" fill="white"/>
<path d="M92.0463 16.8305V1.10059H86.8428V16.8305H83.7496C83.2659 16.8305 82.8018 16.6374 82.4591 16.2935C82.1164 15.9497 81.923 15.483 81.9212 14.9958V1.14905H76.7246V15.5081C76.7237 16.3694 76.8915 17.2224 77.2183 18.0182C77.5451 18.8141 78.0245 19.5372 78.6292 20.1462C79.2338 20.7553 79.9518 21.2382 80.7419 21.5673C81.5321 21.8965 82.379 22.0655 83.2341 22.0646H96.9473V16.8305H92.0463Z" fill="white"/>
<path d="M102.151 15.1135V6.80544V2.81758C102.156 2.40432 102.012 2.00317 101.747 1.68777C101.482 1.37237 101.113 1.16388 100.707 1.10059H96.9541V16.7889H102.158L102.151 15.1135Z" fill="white"/>
<path d="M8.45421 2.24317C8.45421 2.68683 8.32359 3.12052 8.07888 3.48941C7.83416 3.8583 7.48633 4.14581 7.07938 4.31559C6.67243 4.48537 6.22464 4.52979 5.79262 4.44324C5.3606 4.35669 4.96377 4.14305 4.6523 3.82933C4.34084 3.51562 4.12873 3.11593 4.04279 2.68079C3.95686 2.24566 4.00097 1.79463 4.16953 1.38475C4.33809 0.97486 4.62355 0.624525 4.98979 0.378042C5.35604 0.131559 5.78663 0 6.2271 0C6.51957 0 6.80918 0.0580209 7.07938 0.170751C7.34959 0.283481 7.5951 0.448712 7.80191 0.65701C8.00871 0.865308 8.17276 1.11259 8.28468 1.38475C8.3966 1.6569 8.45421 1.94859 8.45421 2.24317V2.24317Z" fill="white"/>
<path d="M101.546 20.7568C101.546 20.3132 101.676 19.8795 101.921 19.5106C102.166 19.1417 102.514 18.8542 102.921 18.6844C103.328 18.5146 103.775 18.4702 104.207 18.5568C104.639 18.6433 105.036 18.857 105.348 19.1707C105.659 19.4844 105.871 19.8841 105.957 20.3192C106.043 20.7544 105.999 21.2054 105.83 21.6153C105.662 22.0252 105.376 22.3755 105.01 22.622C104.644 22.8685 104.213 23 103.773 23C103.182 23 102.616 22.7637 102.198 22.343C101.78 21.9223 101.546 21.3518 101.546 20.7568V20.7568Z" fill="white"/>
</g>
<defs>
<filter id="filter0_d_88_934" x="0" y="0" width="110" height="31" filterUnits="userSpaceOnUse" color-interpolation-filters="sRGB">
<feFlood flood-opacity="0" result="BackgroundImageFix"/>
<feColorMatrix in="SourceAlpha" type="matrix" values="0 0 0 0 0 0 0 0 0 0 0 0 0 0 0 0 0 0 127 0" result="hardAlpha"/>
<feOffset dy="4"/>
<feGaussianBlur stdDeviation="2"/>
<feComposite in2="hardAlpha" operator="out"/>
<feColorMatrix type="matrix" values="0 0 0 0 0 0 0 0 0 0 0 0 0 0 0 0 0 0 0.25 0"/>
<feBlend mode="normal" in2="BackgroundImageFix" result="effect1_dropShadow_88_934"/>
<feBlend mode="normal" in="SourceGraphic" in2="effect1_dropShadow_88_934" result="shape"/>
</filter>
</defs>
</svg>

