<svg width="20" height="20" viewBox="0 0 20 20" fill="none" xmlns="http://www.w3.org/2000/svg">
<path d="M11.1759 10.0005L14.7593 6.42548C14.9162 6.26856 15.0043 6.05573 15.0043 5.83381C15.0043 5.6119 14.9162 5.39907 14.7593 5.24215C14.6023 5.08523 14.3895 4.99707 14.1676 4.99707C13.9457 4.99707 13.7328 5.08523 13.5759 5.24215L10.0009 8.82548L6.42593 5.24215C6.26901 5.08523 6.05618 4.99707 5.83426 4.99707C5.61234 4.99707 5.39951 5.08523 5.24259 5.24215C5.08567 5.39907 4.99752 5.6119 4.99752 5.83381C4.99752 6.05573 5.08567 6.26856 5.24259 6.42548L8.82593 10.0005L5.24259 13.5755C5.16449 13.6529 5.10249 13.7451 5.06018 13.8467C5.01788 13.9482 4.99609 14.0571 4.99609 14.1671C4.99609 14.2772 5.01788 14.3861 5.06018 14.4876C5.10249 14.5892 5.16449 14.6813 5.24259 14.7588C5.32006 14.8369 5.41223 14.8989 5.51378 14.9412C5.61533 14.9835 5.72425 15.0053 5.83426 15.0053C5.94427 15.0053 6.05319 14.9835 6.15474 14.9412C6.25629 14.8989 6.34846 14.8369 6.42593 14.7588L10.0009 11.1755L13.5759 14.7588C13.6534 14.8369 13.7456 14.8989 13.8471 14.9412C13.9487 14.9835 14.0576 15.0053 14.1676 15.0053C14.2776 15.0053 14.3865 14.9835 14.4881 14.9412C14.5896 14.8989 14.6818 14.8369 14.7593 14.7588C14.8374 14.6813 14.8994 14.5892 14.9417 14.4876C14.984 14.3861 15.0058 14.2772 15.0058 14.1671C15.0058 14.0571 14.984 13.9482 14.9417 13.8467C14.8994 13.7451 14.8374 13.6529 14.7593 13.5755L11.1759 10.0005Z" fill="#E41616"/>
</svg>
