<svg width="296" height="296" viewBox="0 0 296 296" fill="none" xmlns="http://www.w3.org/2000/svg">
<g filter="url(#filter0_d_2076_1223)">
<path d="M70.2896 54L210 54.2896L209.71 194L69.9999 193.71L70.2896 54Z" fill="white"/>
</g>
<path d="M126.514 95.8786C131.468 90.5987 133.944 87.9588 136.855 87.0246C139.202 86.2714 141.725 86.2714 144.072 87.0246C146.982 87.9588 149.459 90.5987 154.413 95.8786L160.824 102.712C170.564 113.094 175.435 118.285 175.581 122.731C175.698 126.262 174.226 129.661 171.571 131.992C168.228 134.927 161.111 134.927 146.875 134.927H134.052C119.816 134.927 112.698 134.927 109.356 131.992C106.701 129.661 105.229 126.262 105.346 122.731C105.492 118.285 110.362 113.094 120.103 102.712L126.514 95.8786Z" fill="url(#paint0_linear_2076_1223)"/>
<g filter="url(#filter1_b_2076_1223)">
<rect x="108.093" y="114.886" width="63.9308" height="49.4703" rx="19.5851" fill="#B9DDFF" fill-opacity="0.6"/>
<rect x="108.399" y="115.192" width="63.3189" height="48.8584" rx="19.2792" stroke="url(#paint1_linear_2076_1223)" stroke-width="0.611895"/>
</g>
<g filter="url(#filter2_b_2076_1223)">
<rect x="149.45" y="142.05" width="13.4792" height="17.9722" rx="6.73959" transform="rotate(90 149.45 142.05)" fill="url(#paint2_linear_2076_1223)"/>
<rect x="149.205" y="142.295" width="12.9897" height="17.4827" rx="6.49483" transform="rotate(90 149.205 142.295)" stroke="url(#paint3_linear_2076_1223)" stroke-width="0.489516"/>
</g>
<defs>
<filter id="filter0_d_2076_1223" x="0.228919" y="0.329937" width="295.643" height="295.643" filterUnits="userSpaceOnUse" color-interpolation-filters="sRGB">
<feFlood flood-opacity="0" result="BackgroundImageFix"/>
<feColorMatrix in="SourceAlpha" type="matrix" values="0 0 0 0 0 0 0 0 0 0 0 0 0 0 0 0 0 0 127 0" result="hardAlpha"/>
<feMorphology radius="11.6285" operator="erode" in="SourceAlpha" result="effect1_dropShadow_2076_1223"/>
<feOffset dx="8.05051" dy="24.1515"/>
<feGaussianBlur stdDeviation="44.7251"/>
<feComposite in2="hardAlpha" operator="out"/>
<feColorMatrix type="matrix" values="0 0 0 0 0.0846354 0 0 0 0 0.203125 0 0 0 0 0.3125 0 0 0 0.1 0"/>
<feBlend mode="normal" in2="BackgroundImageFix" result="effect1_dropShadow_2076_1223"/>
<feBlend mode="normal" in="SourceGraphic" in2="effect1_dropShadow_2076_1223" result="shape"/>
</filter>
<filter id="filter1_b_2076_1223" x="95.0363" y="101.829" width="90.0444" height="75.5839" filterUnits="userSpaceOnUse" color-interpolation-filters="sRGB">
<feFlood flood-opacity="0" result="BackgroundImageFix"/>
<feGaussianBlur in="BackgroundImageFix" stdDeviation="6.52838"/>
<feComposite in2="SourceAlpha" operator="in" result="effect1_backgroundBlur_2076_1223"/>
<feBlend mode="normal" in="SourceGraphic" in2="effect1_backgroundBlur_2076_1223" result="shape"/>
</filter>
<filter id="filter2_b_2076_1223" x="107.863" y="118.436" width="65.2003" height="60.7073" filterUnits="userSpaceOnUse" color-interpolation-filters="sRGB">
<feFlood flood-opacity="0" result="BackgroundImageFix"/>
<feGaussianBlur in="BackgroundImageFix" stdDeviation="11.807"/>
<feComposite in2="SourceAlpha" operator="in" result="effect1_backgroundBlur_2076_1223"/>
<feBlend mode="normal" in="SourceGraphic" in2="effect1_backgroundBlur_2076_1223" result="shape"/>
</filter>
<linearGradient id="paint0_linear_2076_1223" x1="115.752" y1="96.736" x2="192.134" y2="139.42" gradientUnits="userSpaceOnUse">
<stop stop-color="#529EE3"/>
<stop offset="1" stop-color="#4088F4"/>
</linearGradient>
<linearGradient id="paint1_linear_2076_1223" x1="103.527" y1="119.383" x2="182.7" y2="172.212" gradientUnits="userSpaceOnUse">
<stop stop-color="white"/>
<stop offset="1" stop-color="white" stop-opacity="0"/>
</linearGradient>
<linearGradient id="paint2_linear_2076_1223" x1="154.404" y1="158.937" x2="161.552" y2="139.28" gradientUnits="userSpaceOnUse">
<stop stop-color="white"/>
<stop offset="1" stop-color="white" stop-opacity="0"/>
</linearGradient>
<linearGradient id="paint3_linear_2076_1223" x1="150.829" y1="163.405" x2="163.339" y2="143.3" gradientUnits="userSpaceOnUse">
<stop stop-color="white"/>
<stop offset="1" stop-color="white" stop-opacity="0"/>
</linearGradient>
</defs>
</svg>
