<svg width="296" height="296" viewBox="0 0 296 296" fill="none" xmlns="http://www.w3.org/2000/svg">
<g filter="url(#filter0_d_2076_1221)">
<path d="M70.2896 54L210 54.2896L209.71 194L69.9999 193.71L70.2896 54Z" fill="white"/>
</g>
<g filter="url(#filter1_b_2076_1221)">
<path d="M104.731 122.694C104.731 114.44 104.731 110.313 106.72 107.097C107.151 106.399 107.647 105.742 108.2 105.135C110.746 102.34 114.714 101.206 122.65 98.9385L129.208 97.0648C134.655 95.5085 137.378 94.7304 140.174 94.7304C142.969 94.7304 145.692 95.5085 151.139 97.0648L157.697 98.9385C165.633 101.206 169.601 102.34 172.147 105.135C172.7 105.742 173.196 106.399 173.628 107.097C175.616 110.313 175.616 114.44 175.616 122.694V124.311C175.616 138.818 175.616 146.072 172.024 151.218C170.68 153.144 169.006 154.817 167.081 156.161C161.934 159.753 154.681 159.753 140.174 159.753V159.753C125.666 159.753 118.413 159.753 113.266 156.161C111.341 154.817 109.667 153.144 108.323 151.218C104.731 146.072 104.731 138.818 104.731 124.311V122.694Z" fill="url(#paint0_linear_2076_1221)"/>
</g>
<g filter="url(#filter2_b_2076_1221)">
<path fill-rule="evenodd" clip-rule="evenodd" d="M117.389 83.8055C113.195 83.8055 109.794 88.4977 109.794 94.2859V117.222C124.669 128.506 132.497 139.444 140.174 139.5C148.012 139.558 155.692 128.496 170.553 117.222V94.2859C170.553 88.4977 167.152 83.8055 162.958 83.8055H117.389Z" fill="#B9DDFF" fill-opacity="0.6"/>
<path d="M110.1 94.2859C110.1 91.4492 110.934 88.8936 112.267 87.0547C113.599 85.2154 115.414 84.1114 117.389 84.1114H162.958C164.933 84.1114 166.748 85.2154 168.081 87.0547C169.413 88.8936 170.247 91.4492 170.247 94.2859V117.071C164.938 121.108 160.539 125.121 156.733 128.593C155.247 129.948 153.852 131.221 152.528 132.38C150.153 134.461 148.011 136.175 145.983 137.365C143.956 138.554 142.061 139.208 140.176 139.194C138.331 139.181 136.456 138.514 134.436 137.319C132.415 136.124 130.269 134.414 127.884 132.341C126.547 131.179 125.136 129.903 123.633 128.544C119.814 125.091 115.402 121.102 110.1 117.071V94.2859Z" stroke="url(#paint1_linear_2076_1221)" stroke-width="0.611895"/>
</g>
<rect x="155.119" y="99.2396" width="4.57368" height="29.8897" rx="2.28684" transform="rotate(90 155.119 99.2396)" fill="url(#paint2_linear_2076_1221)" fill-opacity="0.9" stroke="url(#paint3_linear_2076_1221)" stroke-width="0.489516"/>
<rect x="155.119" y="114.429" width="4.57368" height="29.8897" rx="2.28684" transform="rotate(90 155.119 114.429)" fill="url(#paint4_linear_2076_1221)" fill-opacity="0.9" stroke="url(#paint5_linear_2076_1221)" stroke-width="0.489516"/>
<path fill-rule="evenodd" clip-rule="evenodd" d="M174.822 110.617C175.261 112.223 175.458 114.13 175.545 116.554L141.771 143.996C140.84 144.751 139.508 144.751 138.578 143.996L104.802 116.553C104.89 114.129 105.087 112.223 105.526 110.617L140.174 138.769L174.822 110.617Z" fill="url(#paint6_linear_2076_1221)"/>
<defs>
<filter id="filter0_d_2076_1221" x="0.228919" y="0.329937" width="295.643" height="295.643" filterUnits="userSpaceOnUse" color-interpolation-filters="sRGB">
<feFlood flood-opacity="0" result="BackgroundImageFix"/>
<feColorMatrix in="SourceAlpha" type="matrix" values="0 0 0 0 0 0 0 0 0 0 0 0 0 0 0 0 0 0 127 0" result="hardAlpha"/>
<feMorphology radius="11.6285" operator="erode" in="SourceAlpha" result="effect1_dropShadow_2076_1221"/>
<feOffset dx="8.05051" dy="24.1515"/>
<feGaussianBlur stdDeviation="44.7251"/>
<feComposite in2="hardAlpha" operator="out"/>
<feColorMatrix type="matrix" values="0 0 0 0 0.0846354 0 0 0 0 0.203125 0 0 0 0 0.3125 0 0 0 0.1 0"/>
<feBlend mode="normal" in2="BackgroundImageFix" result="effect1_dropShadow_2076_1221"/>
<feBlend mode="normal" in="SourceGraphic" in2="effect1_dropShadow_2076_1221" result="shape"/>
</filter>
<filter id="filter1_b_2076_1221" x="91.4259" y="81.4251" width="97.4953" height="91.6334" filterUnits="userSpaceOnUse" color-interpolation-filters="sRGB">
<feFlood flood-opacity="0" result="BackgroundImageFix"/>
<feGaussianBlur in="BackgroundImageFix" stdDeviation="6.65264"/>
<feComposite in2="SourceAlpha" operator="in" result="effect1_backgroundBlur_2076_1221"/>
<feBlend mode="normal" in="SourceGraphic" in2="effect1_backgroundBlur_2076_1221" result="shape"/>
</filter>
<filter id="filter2_b_2076_1221" x="96.4892" y="70.5002" width="87.3688" height="82.3057" filterUnits="userSpaceOnUse" color-interpolation-filters="sRGB">
<feFlood flood-opacity="0" result="BackgroundImageFix"/>
<feGaussianBlur in="BackgroundImageFix" stdDeviation="6.65264"/>
<feComposite in2="SourceAlpha" operator="in" result="effect1_backgroundBlur_2076_1221"/>
<feBlend mode="normal" in="SourceGraphic" in2="effect1_backgroundBlur_2076_1221" result="shape"/>
</filter>
<linearGradient id="paint0_linear_2076_1221" x1="125.179" y1="108.33" x2="178.664" y2="128.138" gradientUnits="userSpaceOnUse">
<stop stop-color="#7FC0FB"/>
<stop offset="1" stop-color="#4088F4"/>
</linearGradient>
<linearGradient id="paint1_linear_2076_1221" x1="142.705" y1="75.4512" x2="141.643" y2="128.34" gradientUnits="userSpaceOnUse">
<stop stop-color="white"/>
<stop offset="0.996024" stop-color="white" stop-opacity="0"/>
</linearGradient>
<linearGradient id="paint2_linear_2076_1221" x1="158.183" y1="134.163" x2="158.183" y2="93.3838" gradientUnits="userSpaceOnUse">
<stop stop-color="white"/>
<stop offset="1" stop-color="white" stop-opacity="0"/>
</linearGradient>
<linearGradient id="paint3_linear_2076_1221" x1="145.296" y1="139.651" x2="167.184" y2="93.0806" gradientUnits="userSpaceOnUse">
<stop stop-color="white"/>
<stop offset="1" stop-color="white" stop-opacity="0"/>
</linearGradient>
<linearGradient id="paint4_linear_2076_1221" x1="153.566" y1="144.822" x2="158.097" y2="108.07" gradientUnits="userSpaceOnUse">
<stop stop-color="white"/>
<stop offset="1" stop-color="white" stop-opacity="0"/>
</linearGradient>
<linearGradient id="paint5_linear_2076_1221" x1="148.269" y1="146.458" x2="165.966" y2="114.79" gradientUnits="userSpaceOnUse">
<stop stop-color="white"/>
<stop offset="1" stop-color="white" stop-opacity="0"/>
</linearGradient>
<linearGradient id="paint6_linear_2076_1221" x1="125.209" y1="118.043" x2="165.311" y2="146.783" gradientUnits="userSpaceOnUse">
<stop stop-color="#529EE3"/>
<stop offset="1" stop-color="#4088F4"/>
</linearGradient>
</defs>
</svg>
