<svg width="296" height="296" viewBox="0 0 296 296" fill="none" xmlns="http://www.w3.org/2000/svg">
<g filter="url(#filter0_d_2076_1222)">
<path d="M70.2896 54L210 54.2896L209.71 194L69.9999 193.71L70.2896 54Z" fill="white"/>
</g>
<circle cx="140.463" cy="144.973" r="19.866" fill="url(#paint0_linear_2076_1222)"/>
<g filter="url(#filter1_b_2076_1222)">
<mask id="path-3-inside-1_2076_1222" fill="white">
<path fill-rule="evenodd" clip-rule="evenodd" d="M130.259 92.1499C130.259 86.5138 134.828 81.9449 140.464 81.9449C146.1 81.9449 150.669 86.5138 150.669 92.1499C150.669 94.7672 149.683 97.1543 148.063 98.9607C158.789 101.39 166.805 110.342 168.036 121.272L169.758 136.552C169.816 137.065 169.836 137.573 169.821 138.073H170.705C173.73 138.073 176.181 140.525 176.181 143.549C176.181 146.266 174.187 148.576 171.496 148.944C148.279 152.115 133.265 152.088 109.448 148.926C106.752 148.568 104.747 146.257 104.747 143.537C104.747 140.519 107.193 138.073 110.211 138.073H111.108C111.093 137.573 111.113 137.065 111.17 136.552L112.892 121.272C114.124 110.342 122.139 101.39 132.864 98.9608C131.244 97.1545 130.259 94.7672 130.259 92.1499Z"/>
</mask>
<path fill-rule="evenodd" clip-rule="evenodd" d="M130.259 92.1499C130.259 86.5138 134.828 81.9449 140.464 81.9449C146.1 81.9449 150.669 86.5138 150.669 92.1499C150.669 94.7672 149.683 97.1543 148.063 98.9607C158.789 101.39 166.805 110.342 168.036 121.272L169.758 136.552C169.816 137.065 169.836 137.573 169.821 138.073H170.705C173.73 138.073 176.181 140.525 176.181 143.549C176.181 146.266 174.187 148.576 171.496 148.944C148.279 152.115 133.265 152.088 109.448 148.926C106.752 148.568 104.747 146.257 104.747 143.537C104.747 140.519 107.193 138.073 110.211 138.073H111.108C111.093 137.573 111.113 137.065 111.17 136.552L112.892 121.272C114.124 110.342 122.139 101.39 132.864 98.9608C131.244 97.1545 130.259 94.7672 130.259 92.1499Z" fill="#B9DDFF" fill-opacity="0.6"/>
<path d="M148.063 98.9607L147.608 98.5522C147.463 98.7137 147.415 98.9398 147.48 99.1465C147.546 99.3532 147.717 99.5096 147.928 99.5575L148.063 98.9607ZM168.036 121.272L168.644 121.204L168.644 121.204L168.036 121.272ZM169.758 136.552L170.366 136.483L170.366 136.483L169.758 136.552ZM169.821 138.073L169.209 138.054C169.204 138.22 169.266 138.38 169.381 138.499C169.497 138.618 169.655 138.685 169.821 138.685V138.073ZM171.496 148.944L171.413 148.338L171.413 148.338L171.496 148.944ZM109.448 148.926L109.529 148.319L109.529 148.319L109.448 148.926ZM111.108 138.073V138.685C111.273 138.685 111.432 138.618 111.547 138.499C111.662 138.38 111.724 138.22 111.719 138.054L111.108 138.073ZM111.17 136.552L111.779 136.62L111.779 136.62L111.17 136.552ZM112.892 121.272L113.5 121.341L113.5 121.341L112.892 121.272ZM132.864 98.9608L132.999 99.5576C133.211 99.5097 133.381 99.3533 133.447 99.1466C133.513 98.9399 133.465 98.7138 133.32 98.5523L132.864 98.9608ZM140.464 81.3331C134.49 81.3331 129.647 86.1759 129.647 92.1499H130.871C130.871 86.8518 135.166 82.5568 140.464 82.5568V81.3331ZM151.281 92.1499C151.281 86.1759 146.438 81.3331 140.464 81.3331V82.5568C145.762 82.5568 150.057 86.8518 150.057 92.1499H151.281ZM148.519 99.3692C150.236 97.455 151.281 94.9237 151.281 92.1499H150.057C150.057 94.6106 149.131 96.8537 147.608 98.5522L148.519 99.3692ZM168.644 121.204C167.384 110.014 159.178 100.85 148.199 98.3639L147.928 99.5575C158.4 101.929 166.226 110.669 167.428 121.341L168.644 121.204ZM170.366 136.483L168.644 121.204L167.428 121.341L169.15 136.62L170.366 136.483ZM170.432 138.092C170.448 137.562 170.427 137.025 170.366 136.483L169.15 136.62C169.204 137.104 169.223 137.583 169.209 138.054L170.432 138.092ZM170.705 137.461H169.821V138.685H170.705V137.461ZM176.793 143.549C176.793 140.187 174.067 137.461 170.705 137.461V138.685C173.392 138.685 175.57 140.863 175.57 143.549H176.793ZM171.579 149.55C174.577 149.141 176.793 146.568 176.793 143.549H175.57C175.57 145.963 173.798 148.012 171.413 148.338L171.579 149.55ZM109.368 149.532C133.237 152.702 148.306 152.729 171.579 149.55L171.413 148.338C148.253 151.501 133.293 151.475 109.529 148.319L109.368 149.532ZM104.135 143.537C104.135 146.561 106.364 149.134 109.368 149.532L109.529 148.319C107.14 148.002 105.359 145.953 105.359 143.537H104.135ZM110.211 137.461C106.856 137.461 104.135 140.181 104.135 143.537H105.359C105.359 140.857 107.531 138.685 110.211 138.685V137.461ZM111.108 137.461H110.211V138.685H111.108V137.461ZM110.562 136.483C110.501 137.025 110.48 137.562 110.496 138.092L111.719 138.054C111.705 137.583 111.724 137.104 111.779 136.62L110.562 136.483ZM112.284 121.204L110.562 136.483L111.779 136.62L113.5 121.341L112.284 121.204ZM132.729 98.364C121.75 100.851 113.545 110.014 112.284 121.204L113.5 121.341C114.703 110.669 122.528 101.929 132.999 99.5576L132.729 98.364ZM129.647 92.1499C129.647 94.9238 130.692 97.4551 132.409 99.3694L133.32 98.5523C131.797 96.8538 130.871 94.6107 130.871 92.1499H129.647Z" fill="url(#paint1_linear_2076_1222)" mask="url(#path-3-inside-1_2076_1222)"/>
</g>
<defs>
<filter id="filter0_d_2076_1222" x="0.228919" y="0.329937" width="295.643" height="295.643" filterUnits="userSpaceOnUse" color-interpolation-filters="sRGB">
<feFlood flood-opacity="0" result="BackgroundImageFix"/>
<feColorMatrix in="SourceAlpha" type="matrix" values="0 0 0 0 0 0 0 0 0 0 0 0 0 0 0 0 0 0 127 0" result="hardAlpha"/>
<feMorphology radius="11.6285" operator="erode" in="SourceAlpha" result="effect1_dropShadow_2076_1222"/>
<feOffset dx="8.05051" dy="24.1515"/>
<feGaussianBlur stdDeviation="44.7251"/>
<feComposite in2="hardAlpha" operator="out"/>
<feColorMatrix type="matrix" values="0 0 0 0 0.0846354 0 0 0 0 0.203125 0 0 0 0 0.3125 0 0 0 0.1 0"/>
<feBlend mode="normal" in2="BackgroundImageFix" result="effect1_dropShadow_2076_1222"/>
<feBlend mode="normal" in="SourceGraphic" in2="effect1_dropShadow_2076_1222" result="shape"/>
</filter>
<filter id="filter1_b_2076_1222" x="91.3386" y="68.5365" width="98.2512" height="96.1821" filterUnits="userSpaceOnUse" color-interpolation-filters="sRGB">
<feFlood flood-opacity="0" result="BackgroundImageFix"/>
<feGaussianBlur in="BackgroundImageFix" stdDeviation="6.70422"/>
<feComposite in2="SourceAlpha" operator="in" result="effect1_backgroundBlur_2076_1222"/>
<feBlend mode="normal" in="SourceGraphic" in2="effect1_backgroundBlur_2076_1222" result="shape"/>
</filter>
<linearGradient id="paint0_linear_2076_1222" x1="129.434" y1="139.225" x2="167.622" y2="172.756" gradientUnits="userSpaceOnUse">
<stop stop-color="#529EE3"/>
<stop offset="1" stop-color="#4088F4"/>
</linearGradient>
<linearGradient id="paint1_linear_2076_1222" x1="117.503" y1="102.355" x2="160.875" y2="150.828" gradientUnits="userSpaceOnUse">
<stop stop-color="white"/>
<stop offset="1" stop-color="white" stop-opacity="0"/>
</linearGradient>
</defs>
</svg>
