<svg width="18" height="18" viewBox="0 0 18 18" fill="none" xmlns="http://www.w3.org/2000/svg">
<path d="M11.775 10.65C11.9125 10.7125 12.0533 10.7188 12.1973 10.6688C12.3408 10.6188 12.4375 10.525 12.4875 10.3875C12.5875 10.1625 12.6562 9.9345 12.6937 9.7035C12.7312 9.472 12.75 9.2375 12.75 9C12.75 8.525 12.6595 8.053 12.4785 7.584C12.297 7.1155 12.025 6.7 11.6625 6.3375C11.3 5.975 10.8907 5.70625 10.4347 5.53125C9.97825 5.35625 9.5125 5.26875 9.0375 5.26875L9.375 4.93125C9.4875 4.81875 9.54075 4.6875 9.53475 4.5375C9.52825 4.3875 9.46875 4.25625 9.35625 4.14375C9.24375 4.03125 9.1125 3.975 8.9625 3.975C8.8125 3.975 8.68125 4.03125 8.56875 4.14375L7.0875 5.60625C7.0125 5.68125 6.975 5.76875 6.975 5.86875C6.975 5.96875 7.0125 6.05625 7.0875 6.13125L8.56875 7.59375C8.68125 7.69375 8.8125 7.74675 8.9625 7.75275C9.1125 7.75925 9.24375 7.70625 9.35625 7.59375C9.46875 7.48125 9.525 7.35 9.525 7.2C9.525 7.05 9.46875 6.91875 9.35625 6.80625L8.925 6.375C9.2625 6.375 9.60625 6.4405 9.95625 6.5715C10.3062 6.703 10.6062 6.89375 10.8563 7.14375C11.1063 7.39375 11.297 7.68125 11.4285 8.00625C11.5595 8.33125 11.625 8.65625 11.625 8.98125C11.625 9.13125 11.6158 9.28125 11.5972 9.43125C11.5782 9.58125 11.5375 9.725 11.475 9.8625C11.4125 10.0375 11.4095 10.1967 11.466 10.3403C11.522 10.4843 11.625 10.5875 11.775 10.65ZM8.64375 13.8563C8.75625 13.9688 8.8875 14.025 9.0375 14.025C9.1875 14.025 9.31875 13.9688 9.43125 13.8563L10.9125 12.3937C10.9875 12.3187 11.025 12.2312 11.025 12.1312C11.025 12.0312 10.9875 11.9437 10.9125 11.8687L9.43125 10.4062C9.31875 10.3062 9.1875 10.253 9.0375 10.2465C8.8875 10.2405 8.75625 10.2937 8.64375 10.4062C8.53125 10.5188 8.475 10.65 8.475 10.8C8.475 10.95 8.53125 11.0813 8.64375 11.1938L9.05625 11.6063C8.70625 11.6188 8.36575 11.5625 8.03475 11.4375C7.70325 11.3125 7.40625 11.1188 7.14375 10.8563C6.89375 10.6062 6.703 10.3187 6.5715 9.99375C6.4405 9.66875 6.375 9.34375 6.375 9.01875C6.375 8.85625 6.3845 8.703 6.4035 8.559C6.422 8.4155 6.4625 8.26875 6.525 8.11875C6.575 7.98125 6.58125 7.84675 6.54375 7.71525C6.50625 7.58425 6.43125 7.48125 6.31875 7.40625C6.16875 7.30625 6.00925 7.28125 5.84025 7.33125C5.67175 7.38125 5.55625 7.48125 5.49375 7.63125C5.39375 7.85625 5.328 8.078 5.2965 8.2965C5.2655 8.5155 5.25 8.75 5.25 9C5.25 9.475 5.34375 9.94375 5.53125 10.4062C5.71875 10.8687 5.99375 11.2812 6.35625 11.6437C6.71875 12.0062 7.125 12.2783 7.575 12.4598C8.025 12.6408 8.4875 12.7375 8.9625 12.75L8.64375 13.0687C8.53125 13.1812 8.475 13.3125 8.475 13.4625C8.475 13.6125 8.53125 13.7438 8.64375 13.8563ZM9 16.5C7.9625 16.5 6.9875 16.303 6.075 15.909C5.1625 15.5155 4.36875 14.9813 3.69375 14.3063C3.01875 13.6313 2.4845 12.8375 2.091 11.925C1.697 11.0125 1.5 10.0375 1.5 9C1.5 7.9625 1.697 6.9875 2.091 6.075C2.4845 5.1625 3.01875 4.36875 3.69375 3.69375C4.36875 3.01875 5.1625 2.48425 6.075 2.09025C6.9875 1.69675 7.9625 1.5 9 1.5C10.0375 1.5 11.0125 1.69675 11.925 2.09025C12.8375 2.48425 13.6313 3.01875 14.3063 3.69375C14.9813 4.36875 15.5155 5.1625 15.909 6.075C16.303 6.9875 16.5 7.9625 16.5 9C16.5 10.0375 16.303 11.0125 15.909 11.925C15.5155 12.8375 14.9813 13.6313 14.3063 14.3063C13.6313 14.9813 12.8375 15.5155 11.925 15.909C11.0125 16.303 10.0375 16.5 9 16.5ZM9 15C10.6625 15 12.0782 14.4158 13.2472 13.2472C14.4158 12.0782 15 10.6625 15 9C15 7.3375 14.4158 5.92175 13.2472 4.75275C12.0782 3.58425 10.6625 3 9 3C7.3375 3 5.922 3.58425 4.7535 4.75275C3.5845 5.92175 3 7.3375 3 9C3 10.6625 3.5845 12.0782 4.7535 13.2472C5.922 14.4158 7.3375 15 9 15Z" fill="#8B939C"/>
</svg>
